<svg width="16" height="16" viewBox="0 0 16 16" fill="none" xmlns="http://www.w3.org/2000/svg">
<path d="M12.6667 2.66665H12V1.99998C12 1.63331 11.7 1.33331 11.3333 1.33331C10.9667 1.33331 10.6667 1.63331 10.6667 1.99998V2.66665H5.33333V1.99998C5.33333 1.63331 5.03333 1.33331 4.66667 1.33331C4.3 1.33331 4 1.63331 4 1.99998V2.66665H3.33333C2.59333 2.66665 2.00667 3.26665 2.00667 3.99998L2 13.3333C2 14.0666 2.59333 14.6666 3.33333 14.6666H12.6667C13.4 14.6666 14 14.0666 14 13.3333V3.99998C14 3.26665 13.4 2.66665 12.6667 2.66665ZM12.6667 12.6666C12.6667 13.0333 12.3667 13.3333 12 13.3333H4C3.63333 13.3333 3.33333 13.0333 3.33333 12.6666V5.99998H12.6667V12.6666ZM4.66667 7.33331H6V8.66665H4.66667V7.33331ZM7.33333 7.33331H8.66667V8.66665H7.33333V7.33331ZM10 7.33331H11.3333V8.66665H10V7.33331Z" fill="#808080"/>
</svg>
