<svg width="52" height="52" viewBox="0 0 52 52" fill="none" xmlns="http://www.w3.org/2000/svg">
<rect width="52" height="52" rx="12" fill="white"/>
<path d="M16.6667 27.1667C17.95 27.1667 19 26.1167 19 24.8333C19 23.55 17.95 22.5 16.6667 22.5C15.3833 22.5 14.3333 23.55 14.3333 24.8333C14.3333 26.1167 15.3833 27.1667 16.6667 27.1667ZM17.985 28.45C17.5533 28.38 17.1217 28.3333 16.6667 28.3333C15.5117 28.3333 14.415 28.5783 13.4233 29.01C12.56 29.3833 12 30.2233 12 31.1683V33H17.25V31.1217C17.25 30.1533 17.5183 29.2433 17.985 28.45ZM35.3333 27.1667C36.6167 27.1667 37.6667 26.1167 37.6667 24.8333C37.6667 23.55 36.6167 22.5 35.3333 22.5C34.05 22.5 33 23.55 33 24.8333C33 26.1167 34.05 27.1667 35.3333 27.1667ZM40 31.1683C40 30.2233 39.44 29.3833 38.5767 29.01C37.585 28.5783 36.4883 28.3333 35.3333 28.3333C34.8783 28.3333 34.4467 28.38 34.015 28.45C34.4817 29.2433 34.75 30.1533 34.75 31.1217V33H40V31.1683ZM30.9467 27.925C29.5817 27.3183 27.9017 26.875 26 26.875C24.0983 26.875 22.4183 27.33 21.0533 27.925C19.7933 28.485 19 29.745 19 31.1217V33H33V31.1217C33 29.745 32.2067 28.485 30.9467 27.925ZM21.415 30.6667C21.52 30.3983 21.5667 30.2117 22.4767 29.8617C23.6083 29.4183 24.7983 29.2083 26 29.2083C27.2017 29.2083 28.3917 29.4183 29.5233 29.8617C30.4217 30.2117 30.4683 30.3983 30.585 30.6667H21.415ZM26 21.3333C26.6417 21.3333 27.1667 21.8583 27.1667 22.5C27.1667 23.1417 26.6417 23.6667 26 23.6667C25.3583 23.6667 24.8333 23.1417 24.8333 22.5C24.8333 21.8583 25.3583 21.3333 26 21.3333ZM26 19C24.0633 19 22.5 20.5633 22.5 22.5C22.5 24.4367 24.0633 26 26 26C27.9367 26 29.5 24.4367 29.5 22.5C29.5 20.5633 27.9367 19 26 19Z" fill="#5F5F61"/>
</svg>
