<svg width="52" height="52" viewBox="0 0 52 52" fill="none" xmlns="http://www.w3.org/2000/svg">
<rect width="52" height="52" rx="12" fill="white"/>
<path d="M34.7048 23.6779C34.5897 23.848 34.5215 24.0454 34.5072 24.2503C34.4928 24.4551 34.5328 24.6601 34.6231 24.8446C34.9126 25.5204 35.1165 26.2298 35.2298 26.9562C35.5301 28.8347 35.2492 30.7601 34.4247 32.4746C34.3246 32.6626 34.1749 32.8197 33.9919 32.9287C33.8088 33.0377 33.5995 33.0945 33.3864 33.0929H18.6281C18.4139 33.0933 18.2036 33.0348 18.0205 32.9237C17.8373 32.8125 17.6883 32.6531 17.5898 32.4629C16.8429 30.9479 16.5212 29.2587 16.659 27.5752C16.7967 25.8918 17.3886 24.2773 18.3717 22.9038C19.3548 21.5303 20.6922 20.4494 22.2413 19.7762C23.7905 19.103 25.4932 18.8628 27.1681 19.0812C28.0155 19.1808 28.8444 19.4008 29.6297 19.7346C29.8142 19.8248 30.0192 19.8648 30.2241 19.8505C30.4289 19.8361 30.6263 19.768 30.7964 19.6529C30.9736 19.5362 31.1156 19.3733 31.2071 19.1819C31.2987 18.9905 31.3362 18.7777 31.3158 18.5665C31.2954 18.3553 31.2178 18.1536 31.0914 17.9833C30.9649 17.8129 30.7943 17.6802 30.5981 17.5996C28.3443 16.6332 25.8433 16.4015 23.4504 16.9375C21.0575 17.4735 18.8943 18.7498 17.268 20.5853C15.6418 22.4207 14.6353 24.7219 14.3915 27.162C14.1477 29.6021 14.6789 32.0569 15.9098 34.1779C16.1133 34.5306 16.4057 34.8238 16.7577 35.0285C17.1098 35.2331 17.5092 35.3421 17.9164 35.3446H34.0748C34.4859 35.3462 34.8902 35.2392 35.2467 35.0343C35.6032 34.8294 35.8992 34.534 36.1048 34.1779C37.0059 32.6163 37.5328 30.867 37.6441 29.0675C37.7554 27.2679 37.4482 25.467 36.7464 23.8062C36.6575 23.617 36.5194 23.455 36.3465 23.3374C36.1736 23.2198 35.9723 23.1509 35.7636 23.1377C35.5549 23.1246 35.3465 23.1678 35.1602 23.2629C34.9739 23.3579 34.8166 23.5012 34.7048 23.6779Z" fill="#5F5F61"/>
<path d="M24.3564 26.6996C23.9186 27.1374 23.6726 27.7312 23.6726 28.3504C23.6726 28.657 23.733 28.9606 23.8503 29.2438C23.9677 29.5271 24.1396 29.7844 24.3564 30.0012C24.5732 30.218 24.8306 30.39 25.1138 30.5073C25.3971 30.6246 25.7007 30.685 26.0073 30.685C26.6264 30.685 27.2203 30.4391 27.6581 30.0012L34.2614 20.0962L24.3564 26.6996Z" fill="#5F5F61"/>
</svg>
