<svg width="18" height="18" viewBox="0 0 18 18" fill="none" xmlns="http://www.w3.org/2000/svg">
<path d="M7.875 9.7H7.125C6.5025 9.7 6 9.1975 6 8.575C6 7.9525 6.5025 7.45 7.125 7.45H7.875V6.7C7.875 6.0775 8.3775 5.575 9 5.575C9.6225 5.575 10.125 6.0775 10.125 6.7V7.45H10.875C11.4975 7.45 12 7.9525 12 8.575C12 9.1975 11.4975 9.7 10.875 9.7H10.125V10.45C10.125 11.0725 9.6225 11.575 9 11.575C8.3775 11.575 7.875 11.0725 7.875 10.45V9.7ZM8.475 1.645L3.975 3.3325C3.39 3.5575 3 4.1125 3 4.7425V8.2675C3 12.055 5.5575 15.5875 9 16.45C12.4425 15.5875 15 12.055 15 8.2675V4.7425C15 4.12 14.61 3.5575 14.025 3.34L9.525 1.6525C9.1875 1.5175 8.8125 1.5175 8.475 1.645Z" fill="white"/>
</svg>
