<svg width="18" height="18" viewBox="0 0 18 18" fill="none" xmlns="http://www.w3.org/2000/svg">
<path d="M14.6114 9.4512C13.4339 6.3912 9.2414 6.2262 10.2539 1.7787C10.3289 1.4487 9.9764 1.1937 9.6914 1.3662C6.9689 2.9712 5.0114 6.1887 6.6539 10.4037C6.7889 10.7487 6.3839 11.0712 6.0914 10.8462C4.7339 9.8187 4.5914 8.3412 4.7114 7.2837C4.7564 6.8937 4.2464 6.7062 4.0289 7.0287C3.5189 7.8087 3.0014 9.0687 3.0014 10.9662C3.2864 15.1662 6.8339 16.4562 8.1089 16.6212C9.9314 16.8537 11.9039 16.5162 13.3214 15.2187C14.8814 13.7712 15.4514 11.4612 14.6114 9.4512ZM7.6514 13.2237C8.7314 12.9612 9.2864 12.1812 9.4364 11.4912C9.6839 10.4187 8.7164 9.3687 9.3689 7.6737C9.6164 9.0762 11.8214 9.9537 11.8214 11.4837C11.8814 13.3812 9.8264 15.0087 7.6514 13.2237Z" fill="#BBBBBB"/>
<path d="M14.6114 9.4512C13.4339 6.3912 9.2414 6.2262 10.2539 1.7787C10.3289 1.4487 9.9764 1.1937 9.6914 1.3662C6.9689 2.9712 5.0114 6.1887 6.6539 10.4037C6.7889 10.7487 6.3839 11.0712 6.0914 10.8462C4.7339 9.8187 4.5914 8.3412 4.7114 7.2837C4.7564 6.8937 4.2464 6.7062 4.0289 7.0287C3.5189 7.8087 3.0014 9.0687 3.0014 10.9662C3.2864 15.1662 6.8339 16.4562 8.1089 16.6212C9.9314 16.8537 11.9039 16.5162 13.3214 15.2187C14.8814 13.7712 15.4514 11.4612 14.6114 9.4512ZM7.6514 13.2237C8.7314 12.9612 9.2864 12.1812 9.4364 11.4912C9.6839 10.4187 8.7164 9.3687 9.3689 7.6737C9.6164 9.0762 11.8214 9.9537 11.8214 11.4837C11.8814 13.3812 9.8264 15.0087 7.6514 13.2237Z" fill="#BBBBBB"/>
</svg>
