<svg width="52" height="52" viewBox="0 0 52 52" fill="none" xmlns="http://www.w3.org/2000/svg">
<rect width="52" height="52" rx="12" fill="white"/>
<path d="M20.1667 30.6667H28.3333V33H20.1667V30.6667ZM20.1667 26H31.8333V28.3333H20.1667V26ZM20.1667 21.3333H31.8333V23.6667H20.1667V21.3333ZM34.1667 16.6667H29.29C28.8 15.3133 27.5167 14.3333 26 14.3333C24.4833 14.3333 23.2 15.3133 22.71 16.6667H17.8333C17.67 16.6667 17.5183 16.6783 17.3667 16.7133C16.9117 16.8067 16.5033 17.04 16.1883 17.355C15.9783 17.565 15.8033 17.8217 15.6867 18.1017C15.57 18.37 15.5 18.6733 15.5 19V35.3333C15.5 35.6483 15.57 35.9633 15.6867 36.2433C15.8033 36.5233 15.9783 36.7683 16.1883 36.99C16.5033 37.305 16.9117 37.5383 17.3667 37.6317C17.5183 37.655 17.67 37.6667 17.8333 37.6667H34.1667C35.45 37.6667 36.5 36.6167 36.5 35.3333V19C36.5 17.7167 35.45 16.6667 34.1667 16.6667ZM26 16.375C26.4783 16.375 26.875 16.7717 26.875 17.25C26.875 17.7283 26.4783 18.125 26 18.125C25.5217 18.125 25.125 17.7283 25.125 17.25C25.125 16.7717 25.5217 16.375 26 16.375ZM34.1667 35.3333H17.8333V19H34.1667V35.3333Z" fill="#5F5F61"/>
</svg>
