<svg width="52" height="52" viewBox="0 0 52 52" fill="none" xmlns="http://www.w3.org/2000/svg">
<rect width="52" height="52" rx="12" fill="white"/>
<path d="M17.2172 19H19.5505V20.1667C19.5505 21.45 20.6005 22.5 21.8839 22.5H28.8839C30.1672 22.5 31.2172 21.45 31.2172 20.1667V19H33.5505V24.8333H35.8839V19C35.8839 17.7167 34.8338 16.6667 33.5505 16.6667H28.6738C28.1838 15.3133 26.9005 14.3333 25.3839 14.3333C23.8672 14.3333 22.5839 15.3133 22.0939 16.6667H17.2172C15.9339 16.6667 14.8839 17.7167 14.8839 19V35.3333C14.8839 36.6167 15.9339 37.6667 17.2172 37.6667H24.2172V35.3333H17.2172V19ZM25.3839 16.6667C26.0255 16.6667 26.5505 17.1917 26.5505 17.8333C26.5505 18.475 26.0255 19 25.3839 19C24.7422 19 24.2172 18.475 24.2172 17.8333C24.2172 17.1917 24.7422 16.6667 25.3839 16.6667Z" fill="#5F5F61"/>
<path d="M36.7589 27.4583C36.2805 26.98 35.4872 26.98 35.0089 27.4583L29.4788 33L26.8422 30.375C26.3638 29.8967 25.5822 29.8967 25.0922 30.375C24.6138 30.8533 24.6138 31.6467 25.0922 32.125L28.6505 35.6717C29.1055 36.1267 29.8405 36.1267 30.2955 35.6717L36.7472 29.2083C37.2372 28.73 37.2372 27.9367 36.7589 27.4583Z" fill="#5F5F61"/>
</svg>
