<svg width="11" height="10" viewBox="0 0 11 10" fill="none" xmlns="http://www.w3.org/2000/svg">
<path d="M9.50016 5.66659H6.16683V8.99992C6.16683 9.36659 5.86683 9.66659 5.50016 9.66659C5.1335 9.66659 4.8335 9.36659 4.8335 8.99992V5.66659H1.50016C1.1335 5.66659 0.833496 5.36659 0.833496 4.99992C0.833496 4.63325 1.1335 4.33325 1.50016 4.33325H4.8335V0.999919C4.8335 0.633252 5.1335 0.333252 5.50016 0.333252C5.86683 0.333252 6.16683 0.633252 6.16683 0.999919V4.33325H9.50016C9.86683 4.33325 10.1668 4.63325 10.1668 4.99992C10.1668 5.36659 9.86683 5.66659 9.50016 5.66659Z" fill="#808080"/>
</svg>
