<svg width="40" height="40" viewBox="0 0 40 40" fill="none" xmlns="http://www.w3.org/2000/svg">
<path d="M37.5811 17.5984C36.3512 17.5984 35.3809 18.5015 35.2169 19.6374H23.5873C23.5463 19.391 23.5053 19.1447 23.4233 18.8984L28.0287 17.0236C28.3977 17.5162 29.0536 17.6805 29.6139 17.4752C30.3109 17.1878 30.6389 16.4078 30.3519 15.7236C30.0649 15.0257 29.286 14.6972 28.6027 14.9846C27.9877 15.2309 27.6597 15.8878 27.7827 16.4899L23.1773 18.3647C23.0543 18.1184 22.8903 17.872 22.6853 17.6668L30.9259 9.42867C31.8688 10.1676 33.2491 10.1266 34.11 9.26445C35.053 8.32022 35.053 6.81492 34.11 5.87068C33.1671 4.92644 31.6638 4.92644 30.7209 5.87068C29.8599 6.73281 29.7779 8.0739 30.5159 9.01813L22.2754 17.2289C22.0704 17.0647 21.8654 16.9415 21.6604 16.8183L23.5736 12.2066C24.1476 12.2887 24.7626 11.9603 25.0085 11.3856C25.2955 10.6876 24.9675 9.92131 24.2706 9.63394C23.5736 9.34656 22.8083 9.67499 22.5214 10.3729C22.2754 10.9887 22.4804 11.6456 23.0133 12.0014L21.1001 16.572C20.8541 16.4899 20.5671 16.4489 20.2802 16.4078V4.77591C21.4691 4.6117 22.3574 3.62641 22.3574 2.40848C22.3984 1.05371 21.2914 0 19.9932 0C18.6812 0 17.588 1.0674 17.588 2.40848C17.588 3.6401 18.4899 4.65275 19.6652 4.77591V16.4215C19.3782 16.4625 19.1322 16.5036 18.8862 16.5857L17.014 11.974C17.506 11.6045 17.67 10.9477 17.465 10.3866C17.178 9.68867 16.399 9.36025 15.7158 9.64762C15.0188 9.935 14.6908 10.715 14.9778 11.3992C15.2238 12.0151 15.8797 12.3435 16.481 12.2203L18.3533 16.832C18.1073 16.9552 17.9023 17.0783 17.6973 17.2836L9.47045 8.97708C10.1674 8.03284 10.1264 6.69175 9.26546 5.82963C8.32252 4.88539 6.81927 4.88539 5.87632 5.82963C4.93338 6.77386 4.93338 8.27916 5.87632 9.2234C6.73727 10.0855 8.11753 10.1676 9.06047 9.38761L17.301 17.6394C17.137 17.8447 16.973 18.091 16.85 18.3373L12.2446 16.4215C12.3266 15.8467 11.9986 15.2309 11.4247 14.9846C10.7277 14.6972 9.96242 15.0257 9.67544 15.7236C9.38845 16.4215 9.71643 17.1878 10.4134 17.4752C11.0284 17.7215 11.6843 17.5162 12.0396 16.9825L16.604 18.8984C16.522 19.1447 16.481 19.391 16.44 19.6374H4.76939C4.6054 18.4879 3.58046 17.5984 2.40519 17.5984C1.05227 17.5984 0 18.7068 0 20.0068C0 21.3206 1.06594 22.4153 2.40519 22.4153C3.63512 22.4153 4.6464 21.4711 4.76939 20.2942H16.399C16.399 20.5816 16.481 20.869 16.563 21.1153L11.9576 22.9901C11.5887 22.4974 10.9327 22.3332 10.3724 22.5385C9.67544 22.8259 9.34746 23.6059 9.63444 24.2901C9.92142 24.988 10.7004 25.3165 11.3837 25.0291C11.9986 24.7828 12.3266 24.1259 12.2036 23.5238L16.809 21.649C16.932 21.8953 17.055 22.1006 17.26 22.3058L8.97848 30.5576C8.03553 29.8597 6.69628 29.9008 5.83533 30.7629C4.89238 31.7071 4.89238 33.2125 5.83533 34.1567C6.77827 35.1009 8.28152 35.1009 9.22446 34.1567C10.0854 33.2946 10.1674 31.9124 9.38845 30.9682L17.629 22.7164C17.834 22.8806 18.0799 23.0448 18.3259 23.168L16.4127 27.7797C15.8387 27.6976 15.2238 28.026 14.9778 28.6007C14.6908 29.2987 15.0188 30.065 15.7158 30.3524C16.4127 30.6398 17.178 30.3113 17.465 29.6134C17.711 28.9976 17.506 28.3407 16.973 27.9849L18.8862 23.4143C19.1322 23.4964 19.4192 23.5375 19.7062 23.5785V35.2241C18.5173 35.3883 17.629 36.3736 17.629 37.5915C17.629 38.9052 18.6949 40 20.0342 40C21.3871 40 22.4394 38.9326 22.4394 37.5915C22.4394 36.3599 21.5374 35.3472 20.3621 35.2241V23.6196C20.6491 23.5785 20.8951 23.5375 21.1411 23.4554L23.0133 28.0671C22.5214 28.4365 22.3574 29.0934 22.5624 29.6545C22.8493 30.3524 23.6283 30.6808 24.3116 30.3934C25.0085 30.1061 25.3365 29.326 25.0495 28.6418C24.8036 28.026 24.1476 27.6976 23.5463 27.8207L21.6331 23.209C21.8791 23.0859 22.125 22.9217 22.33 22.7164L30.5706 30.9682C29.8326 31.9124 29.8736 33.2946 30.7345 34.1567C31.6775 35.1009 33.1807 35.1009 34.1237 34.1567C35.0666 33.2125 35.0666 31.7071 34.1237 30.7629C33.2627 29.9008 31.9235 29.8187 30.9805 30.5576L22.781 22.3058C22.945 22.1006 23.068 21.8953 23.191 21.69L27.7964 23.6059C27.7144 24.1806 28.0424 24.7964 28.6163 25.0428C29.3133 25.3301 30.0786 25.0017 30.3656 24.3038C30.6525 23.6059 30.3246 22.8395 29.6276 22.5522C29.0126 22.3058 28.3567 22.5111 28.0014 23.0448L23.437 21.129C23.519 20.8416 23.56 20.5953 23.601 20.2668H35.2306C35.3536 21.4574 36.3785 22.388 37.5948 22.388C38.9067 22.388 40 21.3206 40 19.9795C39.9863 18.6247 38.9204 17.5984 37.5811 17.5984Z" fill="#F04141"/>
</svg>
