<svg width="16" height="16" viewBox="0 0 16 16" fill="none" xmlns="http://www.w3.org/2000/svg">
<path d="M4.00016 12.6667C4.00016 13.4 4.60016 14 5.3335 14H10.6668C11.4002 14 12.0002 13.4 12.0002 12.6667V6C12.0002 5.26667 11.4002 4.66667 10.6668 4.66667H5.3335C4.60016 4.66667 4.00016 5.26667 4.00016 6V12.6667ZM12.0002 2.66667H10.3335L9.86016 2.19333C9.74016 2.07333 9.56683 2 9.3935 2H6.60683C6.4335 2 6.26016 2.07333 6.14016 2.19333L5.66683 2.66667H4.00016C3.6335 2.66667 3.3335 2.96667 3.3335 3.33333C3.3335 3.7 3.6335 4 4.00016 4H12.0002C12.3668 4 12.6668 3.7 12.6668 3.33333C12.6668 2.96667 12.3668 2.66667 12.0002 2.66667Z" fill="#808080"/>
</svg>
