<svg width="18" height="18" viewBox="0 0 18 18" fill="none" xmlns="http://www.w3.org/2000/svg">
<path d="M9.8775 1.5H4.5C3.675 1.5 3 2.175 3 3V15C3 15.825 3.675 16.5 4.5 16.5H13.5C14.325 16.5 15 15.825 15 15V6.6225C15 6.225 14.8425 5.8425 14.5575 5.565L10.935 1.9425C10.6575 1.6575 10.275 1.5 9.8775 1.5ZM12 11.25C12 13.005 10.4925 14.4075 8.7075 14.235C7.1475 14.085 6 12.69 6 11.1225V7.23C6 6.2475 6.705 5.355 7.68 5.2575C8.805 5.145 9.75 6.0225 9.75 7.125V10.5C9.75 10.9125 9.4125 11.25 9 11.25C8.5875 11.25 8.25 10.9125 8.25 10.5V7.125C8.25 6.915 8.085 6.75 7.875 6.75C7.665 6.75 7.5 6.915 7.5 7.125V11.1675C7.5 11.9175 8.01 12.6075 8.745 12.7275C9.69 12.885 10.5 12.1575 10.5 11.25V9C10.5 8.5875 10.8375 8.25 11.25 8.25C11.6625 8.25 12 8.5875 12 9V11.25ZM10.5 5.25V3L13.5 6H11.25C10.8375 6 10.5 5.6625 10.5 5.25Z" fill="white"/>
</svg>
