<svg xmlns="http://www.w3.org/2000/svg" fill="none" viewBox="0 0 48 48" id="Eye--Streamline-Ionic-Filled" height="48" width="48"><desc>Eye Streamline Icon: https://streamlinehq.com</desc><path fill="#aeaeae" d="M23.9932 29.9982c3.3132 0 5.9991 -2.6859 5.9991 -5.9991S27.3064 18 23.9932 18s-5.9991 2.6859 -5.9991 5.9991 2.6859 5.9991 5.9991 5.9991Z" stroke-width="1"></path><path fill="#aeaeae" d="M46.0107 22.3686c-2.4806 -3.8362 -5.699 -7.0949 -9.3065 -9.4246C32.7133 10.364 28.3071 9 23.9628 9c-3.9862 0 -7.9058 1.139 -11.6501 3.3853 -3.81838 2.2902 -7.27771 5.6361 -10.28236 9.9439 -0.33919 0.4868 -0.526 1.0636 -0.53669 1.6568 -0.01068 0.5933 0.15525 1.1763 0.47669 1.675 2.47591 3.8747 5.66243 7.1381 9.21356 9.4358 3.9984 2.5903 8.3015 3.9028 12.7789 3.9028 4.379 0 8.7946 -1.3528 12.7686 -3.9112 3.6056 -2.3222 6.8174 -5.5931 9.2886 -9.4611 0.3104 -0.4871 0.4745 -1.0531 0.4729 -1.6308 -0.0017 -0.5776 -0.169 -1.1426 -0.4822 -1.6279Zm-22.016 10.6311c-1.78 0 -3.52 -0.5278 -5 -1.5168 -1.48 -0.9889 -2.6336 -2.3945 -3.3148 -4.039 -0.6811 -1.6445 -0.8594 -3.454 -0.5121 -5.1999 0.3472 -1.7458 1.2044 -3.3494 2.463 -4.6081 1.2587 -1.2586 2.8624 -2.1158 4.6082 -2.463 1.7458 -0.3474 3.5553 -0.169 5.1998 0.5121 1.6446 0.6812 3.0502 1.8347 4.0391 3.3147 0.9889 1.48 1.5167 3.2201 1.5167 5.0001 -0.0027 2.3861 -0.9518 4.6737 -2.639 6.3609 -1.6872 1.6871 -3.9748 2.6363 -6.3609 2.639Z" stroke-width="1"></path></svg>