<svg width="18" height="18" viewBox="0 0 18 18" fill="none" xmlns="http://www.w3.org/2000/svg">
<path d="M7.875 9.69982H7.125C6.5025 9.69982 6 9.19732 6 8.57482C6 7.95232 6.5025 7.44982 7.125 7.44982H7.875V6.69982C7.875 6.07732 8.3775 5.57482 9 5.57482C9.6225 5.57482 10.125 6.07732 10.125 6.69982V7.44982H10.875C11.4975 7.44982 12 7.95232 12 8.57482C12 9.19732 11.4975 9.69982 10.875 9.69982H10.125V10.4498C10.125 11.0723 9.6225 11.5748 9 11.5748C8.3775 11.5748 7.875 11.0723 7.875 10.4498V9.69982ZM8.475 1.64482L3.975 3.33232C3.39 3.55732 3 4.11232 3 4.74232V8.26732C3 12.0548 5.5575 15.5873 9 16.4498C12.4425 15.5873 15 12.0548 15 8.26732V4.74232C15 4.11982 14.61 3.55732 14.025 3.33982L9.525 1.65232C9.1875 1.51732 8.8125 1.51732 8.475 1.64482Z" fill="#BBBBBB"/>
</svg>
