<svg width="18" height="18" viewBox="0 0 18 18" fill="none" xmlns="http://www.w3.org/2000/svg">
<path d="M14.6115 9.4512C13.434 6.3912 9.24147 6.2262 10.254 1.7787C10.329 1.4487 9.97646 1.1937 9.69146 1.3662C6.96896 2.9712 5.01146 6.1887 6.65396 10.4037C6.78896 10.7487 6.38396 11.0712 6.09146 10.8462C4.73396 9.8187 4.59146 8.3412 4.71147 7.2837C4.75646 6.8937 4.24646 6.7062 4.02896 7.0287C3.51896 7.8087 3.00146 9.0687 3.00146 10.9662C3.28646 15.1662 6.83397 16.4562 8.10896 16.6212C9.93147 16.8537 11.904 16.5162 13.3215 15.2187C14.8815 13.7712 15.4515 11.4612 14.6115 9.4512ZM7.65146 13.2237C8.73146 12.9612 9.28646 12.1812 9.43646 11.4912C9.68396 10.4187 8.71646 9.3687 9.36896 7.6737C9.61646 9.0762 11.8215 9.9537 11.8215 11.4837C11.8815 13.3812 9.82646 15.0087 7.65146 13.2237Z" fill="white"/>
<path d="M14.6115 9.4512C13.434 6.3912 9.24147 6.2262 10.254 1.7787C10.329 1.4487 9.97646 1.1937 9.69146 1.3662C6.96896 2.9712 5.01146 6.1887 6.65396 10.4037C6.78896 10.7487 6.38396 11.0712 6.09146 10.8462C4.73396 9.8187 4.59146 8.3412 4.71147 7.2837C4.75646 6.8937 4.24646 6.7062 4.02896 7.0287C3.51896 7.8087 3.00146 9.0687 3.00146 10.9662C3.28646 15.1662 6.83397 16.4562 8.10896 16.6212C9.93147 16.8537 11.904 16.5162 13.3215 15.2187C14.8815 13.7712 15.4515 11.4612 14.6115 9.4512ZM7.65146 13.2237C8.73146 12.9612 9.28646 12.1812 9.43646 11.4912C9.68396 10.4187 8.71646 9.3687 9.36896 7.6737C9.61646 9.0762 11.8215 9.9537 11.8215 11.4837C11.8815 13.3812 9.82646 15.0087 7.65146 13.2237Z" fill="white"/>
</svg>
