<svg width="49" height="48" viewBox="0 0 49 48" fill="none" xmlns="http://www.w3.org/2000/svg">
<g filter="url(#filter0_d_1414_4249)">
<rect x="8.5" y="4" width="32" height="32" rx="16" fill="white" shape-rendering="crispEdges"/>
<rect x="9" y="4.5" width="31" height="31" rx="15.5" stroke="#E8E8E8" shape-rendering="crispEdges"/>
<path d="M18.4993 23.6409V25.6676C18.4993 25.8543 18.6459 26.0009 18.8326 26.0009H20.8593C20.9459 26.0009 21.0326 25.9676 21.0926 25.9009L28.3726 18.6276L25.8726 16.1276L18.5993 23.4009C18.5326 23.4676 18.4993 23.5476 18.4993 23.6409ZM30.3059 16.6943C30.5659 16.4343 30.5659 16.0143 30.3059 15.7543L28.7459 14.1943C28.4859 13.9343 28.0659 13.9343 27.8059 14.1943L26.5859 15.4143L29.0859 17.9143L30.3059 16.6943Z" fill="#F04141"/>
</g>
<defs>
<filter id="filter0_d_1414_4249" x="0.5" y="0" width="48" height="48" filterUnits="userSpaceOnUse" color-interpolation-filters="sRGB">
<feFlood flood-opacity="0" result="BackgroundImageFix"/>
<feColorMatrix in="SourceAlpha" type="matrix" values="0 0 0 0 0 0 0 0 0 0 0 0 0 0 0 0 0 0 127 0" result="hardAlpha"/>
<feOffset dy="4"/>
<feGaussianBlur stdDeviation="4"/>
<feComposite in2="hardAlpha" operator="out"/>
<feColorMatrix type="matrix" values="0 0 0 0 0 0 0 0 0 0 0 0 0 0 0 0 0 0 0.1 0"/>
<feBlend mode="normal" in2="BackgroundImageFix" result="effect1_dropShadow_1414_4249"/>
<feBlend mode="normal" in="SourceGraphic" in2="effect1_dropShadow_1414_4249" result="shape"/>
</filter>
</defs>
</svg>
